<svg width="24" height="24" viewBox="0 0 24 24" fill="none" xmlns="http://www.w3.org/2000/svg">
<path d="M22 11C21.5997 6.10529 17.4971 2.32127 12.5938 2.02159C9.59188 1.82181 6.68999 3.02051 4.68868 5.11824C2.68737 7.31587 1.68671 10.2127 2.08697 13.2095C2.68737 17.6047 6.09712 21.5005 10.5 22C11 22 11.4931 22 11.8934 22C14.295 22 16.5965 21.2009 18.3976 19.6026C18.7979 19.203 18.898 18.6037 18.4977 18.2041C18.0974 17.8045 17.4971 17.7046 17.0968 18.1042C15.3957 19.6026 13.0942 20.3018 10.7927 20.0022C7.19031 19.6026 4.40026 16.6058 4 13.0097C3.79987 10.5124 4.38848 8.31479 6.08959 6.51673C7.69064 4.81857 10.0922 3.81965 12.4938 4.01943C16.3963 4.21922 19.5984 7.41576 19.9987 11.3116C19.9987 11.9109 19.9987 12.4104 19.9987 13.0097C19.8986 13.8089 19.1982 14.4082 18.1975 14.4082C17.2969 14.4082 16.4964 13.6091 16.4964 12.71V12.0108C16.4964 9.51349 14.4951 7.51565 11.9935 7.51565C9.49182 7.51565 7.49051 9.51349 7.49051 12.0108C7.49051 14.5081 9.49182 16.5059 11.9935 16.5059C13.2943 16.5059 14.395 15.9066 15.2956 15.1074C15.9961 16.0065 17.0968 16.5059 18.2976 16.5059C20.1988 16.5059 22 15 22 13.4093C22 12.5 22.0563 11.688 22 11ZM11.8934 14.5081C10.4925 14.5081 9.39175 13.4093 9.39175 12.0108C9.39175 10.6123 10.4925 9.51349 11.8934 9.51349C13.2943 9.51349 14.395 10.6123 14.395 12.0108C14.395 13.4093 13.2943 14.5081 11.8934 14.5081Z" fill="black"/>
</svg>
