<svg xmlns="http://www.w3.org/2000/svg" xmlns:xlink="http://www.w3.org/1999/xlink" width="24" height="24" viewBox="0 0 24 24"><path id="Doughnut" fill="#000" fill-rule="evenodd" stroke="none" d="M 23.215597 16.620953 C 23.167227 16.74971 22.971613 17.004105 22.557226 17.004105 C 20.712894 21.256054 16.572102 24 11.999976 24 C 7.427849 24 3.287059 21.256054 1.442727 17.004105 C 1.039686 17.004105 0.832632 16.749426 0.784262 16.620575 C -1.114966 11.544103 0.517787 5.802958 4.788968 2.539099 C 9.060145 -0.724762 14.940282 -0.724665 19.211351 2.539341 C 23.482424 5.803345 25.11499 11.544544 23.215597 16.620953 Z M 3.49179 9.671932 C 3.313081 9.490351 3.023386 9.490351 2.844673 9.671932 L 1.809213 10.7243 C 1.630518 10.905916 1.630518 11.200371 1.809213 11.381984 C 1.987909 11.5636 2.277635 11.5636 2.45633 11.381984 L 3.49179 10.329898 C 3.577673 10.242664 3.625927 10.124319 3.625927 10.000916 C 3.625927 9.877511 3.577673 9.759166 3.49179 9.671932 Z M 4.093701 5.56531 C 3.836844 5.56531 3.628618 5.776936 3.628618 6.037987 C 3.628618 6.29904 3.836844 6.510664 4.093701 6.510664 C 4.350559 6.510664 4.558784 6.29904 4.558784 6.037987 C 4.558784 5.776936 4.350559 5.56531 4.093701 5.56531 Z M 4.651802 12.466401 C 4.651802 12.727452 4.860027 12.939078 5.116885 12.939078 C 5.373742 12.939078 5.581968 12.727452 5.581968 12.466401 C 5.581968 12.20535 5.373742 11.993724 5.116885 11.993724 C 4.860027 11.993724 4.651802 12.20535 4.651802 12.466401 Z M 7.070234 4.336348 C 7.070234 4.075296 6.862008 3.86367 6.605151 3.86367 C 6.348293 3.86367 6.140068 4.075296 6.140068 4.336348 L 6.140068 5.848917 C 6.140068 6.109968 6.348293 6.321594 6.605151 6.321594 C 6.862008 6.321594 7.070234 6.109968 7.070234 5.848917 L 7.070234 4.336348 Z M 6.938802 9.401372 L 5.90027 8.345881 C 5.721035 8.16372 5.430435 8.16372 5.251201 8.345881 C 5.071966 8.528047 5.071966 8.823389 5.251201 9.00555 L 6.289732 10.06104 C 6.468967 10.243201 6.759564 10.243201 6.938802 10.06104 C 7.118037 9.878879 7.118037 9.583533 6.938802 9.401372 Z M 4.797651 14.829788 C 3.557647 14.829788 3.597087 16.67049 2.243974 16.963642 C 4.030354 20.803822 7.837939 23.25032 12.017417 23.243402 C 16.196892 23.236481 19.996616 20.777386 21.770674 16.931313 C 21.077143 16.642506 20.842554 15.586073 19.790817 15.586073 C 18.114563 15.586073 17.928066 19.083885 16.810564 19.083885 C 15.693062 19.083885 15.557259 16.625963 13.644371 16.625963 C 11.409366 16.625963 11.491686 20.974596 9.174457 20.974596 C 6.586546 20.974596 6.473903 14.829788 4.797651 14.829788 Z M 11.863287 2.392698 C 11.684578 2.211117 11.394883 2.211117 11.21617 2.392698 L 10.180711 3.445066 C 10.002015 3.626682 10.002015 3.921137 10.180711 4.102751 C 10.359406 4.284367 10.649132 4.284367 10.827827 4.102751 L 11.863287 3.050665 C 11.94917 2.963432 11.997424 2.845087 11.997424 2.721684 C 11.997424 2.598278 11.94917 2.479933 11.863287 2.392698 Z M 10.604866 6.794271 C 10.604866 7.055323 10.813092 7.266949 11.069949 7.266949 C 11.326807 7.266949 11.535032 7.055323 11.535032 6.794271 C 11.535032 6.53322 11.326807 6.321594 11.069949 6.321594 C 10.813092 6.321594 10.604866 6.53322 10.604866 6.794271 Z M 12.000115 8.968588 C 10.202108 8.968588 8.744534 10.449964 8.744534 12.27733 C 8.744534 14.104697 10.202108 15.586073 12.000115 15.586073 C 13.798123 15.586073 15.255698 14.104697 15.255698 12.27733 C 15.255698 10.449964 13.798123 8.968588 12.000115 8.968588 Z M 16.984598 4.296455 L 15.946067 3.240965 C 15.766832 3.058804 15.476232 3.058804 15.296997 3.240965 C 15.117763 3.42313 15.117763 3.718472 15.296997 3.900633 L 16.335529 4.956123 C 16.514763 5.138285 16.805361 5.138285 16.984598 4.956123 C 17.163834 4.773962 17.163834 4.478617 16.984598 4.296455 Z M 17.674129 8.401375 L 16.185863 8.401375 C 15.929007 8.401375 15.720781 8.613001 15.720781 8.874052 C 15.720781 9.135104 15.929007 9.346729 16.185863 9.346729 L 17.674129 9.346729 C 17.930988 9.346729 18.139214 9.135104 18.139214 8.874052 C 18.139214 8.613001 17.930988 8.401375 17.674129 8.401375 Z M 18.844931 13.560933 L 17.8064 12.505444 C 17.627165 12.323282 17.336565 12.323282 17.15733 12.505444 C 16.978096 12.687608 16.978096 12.982951 17.15733 13.165112 L 18.195862 14.220602 C 18.375095 14.402763 18.665693 14.402763 18.844931 14.220602 C 19.024166 14.038441 19.024166 13.743094 18.844931 13.560933 Z M 20.092564 5.754381 C 20.092564 5.49333 19.884336 5.281704 19.62748 5.281704 C 19.370623 5.281704 19.162397 5.49333 19.162397 5.754381 L 19.162397 7.266949 C 19.162397 7.528 19.370623 7.739626 19.62748 7.739626 C 19.884336 7.739626 20.092564 7.528 20.092564 7.266949 L 20.092564 5.754381 Z M 22.188133 9.955539 C 22.009424 9.773957 21.71973 9.773957 21.541018 9.955539 L 20.505556 11.007907 C 20.326862 11.189523 20.326862 11.483977 20.505556 11.66559 C 20.684252 11.847206 20.973978 11.847206 21.152674 11.66559 L 22.188133 10.613504 C 22.274017 10.526271 22.322271 10.407926 22.322271 10.284523 C 22.322271 10.161118 22.274017 10.042772 22.188133 9.955539 Z M 22.324963 12.939078 C 22.068104 12.939078 21.859879 13.150704 21.859879 13.411757 C 21.859879 13.672808 22.068104 13.884434 22.324963 13.884434 C 22.58182 13.884434 22.790045 13.672808 22.790045 13.411757 C 22.790045 13.150704 22.58182 12.939078 22.324963 12.939078 Z"/></svg>