<?xml version="1.0" encoding="UTF-8"?>
<!-- Generated by Pixelmator Pro 2.4.1 -->
<svg width="28" height="28" viewBox="0 0 28 28" xmlns="http://www.w3.org/2000/svg" xmlns:xlink="http://www.w3.org/1999/xlink">
    <g id="on-offlarge">
        <path id="Path" fill="#ffffff" stroke="none" d="M 19.32 7.84 C 18.76 7.280003 17.780001 7.419998 17.360001 7.980001 C 16.799999 8.540001 16.940001 9.52 17.5 9.940001 C 18.76 10.92 19.459999 12.46 19.459999 14.140001 C 19.459999 17.08 17.08 19.6 14 19.6 C 10.920013 19.6 8.540013 17.08 8.540013 14 C 8.540013 12.46 9.240014 10.92 10.500013 9.799999 C 11.060015 9.24 11.2 8.4 10.640014 7.84 C 10.080014 7.280003 9.240014 7.139999 8.680015 7.700001 C 6.860014 9.379999 5.740014 11.620001 5.740014 14 C 5.740014 18.48 9.380014 22.26 14 22.26 C 18.48 22.26 22.26 18.619999 22.26 14 C 22.26 11.620001 21.139999 9.379999 19.32 7.84 Z"/>
        <path id="path1" fill="#ffffff" stroke="none" d="M 14 0 C 6.3 0 0 6.299999 0 14 C 0 21.700001 6.3 28 14 28 C 21.700001 28 28 21.700001 28 14 C 28 6.299999 21.700001 0 14 0 Z M 14 25.200001 C 7.84 25.200001 2.8 20.16 2.8 14 C 2.8 7.84 7.84 2.799999 14 2.799999 C 20.16 2.799999 25.200001 7.84 25.200001 14 C 25.200001 20.16 20.16 25.200001 14 25.200001 Z"/>
        <path id="path2" fill="#ffffff" stroke="none" d="M 14 12.74 C 14.84 12.74 15.4 12.18 15.4 11.34 L 15.4 6.299999 C 15.4 5.459999 14.84 4.9 14 4.9 C 13.159999 4.9 12.6 5.459999 12.6 6.299999 L 12.6 11.48 C 12.6 12.18 13.159999 12.74 14 12.74 Z"/>
    </g>
</svg>
